<svg width="126" height="30" viewBox="0 0 126 30" fill="none" xmlns="http://www.w3.org/2000/svg">
<path d="M28 8.70905L26.7593 12.9708L25.9672 12.1805L21.7839 16.1319L18.7806 18.9683L16.3251 21.2874L14.0129 18.9683L12.9229 17.8747L11.5739 16.5208L11.1695 16.1158L8.95471 13.8931L8.10371 14.7154L7.81883 14.9902L6.46975 16.296L5.11698 17.6036L3.72379 18.9505L3.70539 18.9683L1.71118 20.8949L0 22.5504L2.72392 18.9683L6.46975 14.0393L7.81883 12.2661L8.98595 10.7302L11.5739 13.3276L12.6803 14.4389L12.9229 14.6816L16.3747 18.1423L16.6798 17.8534L18.0289 16.5796L18.6281 16.0142L20.3723 14.3658L21.7839 13.0333L24.3718 10.5893L23.5778 9.79899L28 8.70905Z" fill="#2DFF34"/>
<path d="M6.46975 8.70905V14.0393L2.72392 18.9683H2.71289V8.70905H6.46975Z" fill="#FFCE5F"/>
<path d="M27.1545 16.0142C27.1545 23.726 20.6921 30 12.7446 30C8.69002 30 4.91844 28.3463 2.25154 25.5991C1.72587 25.0586 1.24431 24.477 0.810547 23.8562L2.46658 22.2561L5.12983 19.6855L5.87054 18.9683L6.46973 18.3904L7.81881 17.0845L8.11656 16.7973L8.82052 16.1159L8.93446 16.0035L8.9363 16.0053L8.99878 15.9446L11.5738 18.5277L12.6931 19.6516L16.3857 23.3568L18.639 21.2268L20.3851 19.5802L21.0321 18.9684L21.7838 18.2584L24.3827 15.8019L16.3378 26.5018L11.1804 21.3303L8.96566 19.1075L8.11652 19.9281L5.12979 22.8162L3.87444 24.0311C6.11864 26.3698 9.31122 27.7791 12.7446 27.7791C19.4294 27.7791 24.8662 22.5023 24.8662 16.0142H27.1545V16.0142Z" fill="#00B7FF"/>
<path d="M11.5739 5.60332V13.3276L8.98597 10.7302L7.81885 12.2662V5.60332H11.5739Z" fill="#FFCE5F"/>
<path d="M16.6797 3.08619V17.8534L16.3746 18.1424L12.9229 14.6816V3.08619H16.6797Z" fill="#FFCE5F"/>
<path d="M21.7838 0V13.0333L20.3722 14.3658L18.628 16.0142L18.0288 16.5797V0H21.7838Z" fill="#FFCE5F"/>
<path d="M43.6373 24.384C39.1493 24.384 35.7653 22.104 35.7653 18.168H40.1333C40.1333 20.16 41.6453 20.904 43.5893 20.904C45.1973 20.904 46.0133 20.256 46.0133 19.368C46.0133 17.904 44.3093 17.52 41.9333 16.8C38.9573 15.888 36.2933 14.736 36.2933 11.664C36.2933 7.92 39.2213 6.456 42.9173 6.456C46.9253 6.456 50.0693 8.568 50.1893 12.048H45.8213C45.6293 10.728 44.5733 9.936 42.9173 9.936C41.6213 9.936 40.7093 10.368 40.7093 11.352C40.7093 12.504 41.6693 12.888 43.8533 13.536C47.0933 14.496 50.4293 15.408 50.4293 18.96C50.4293 22.248 47.9333 24.384 43.6373 24.384ZM57.6655 21.36C58.0255 21.36 58.2415 21.336 58.6975 21.264V23.976C57.8815 24.168 57.1855 24.24 56.4175 24.24C53.7295 24.24 52.5775 23.016 52.5775 20.016V14.592H50.8735V11.712H52.5775V8.28H56.4175V11.712H58.5535V14.592H56.4175V19.92C56.4175 21.24 56.9215 21.36 57.6655 21.36ZM65.8613 24.408C61.8053 24.408 59.3333 21.768 59.3333 17.88C59.3333 14.016 61.8053 11.304 65.9333 11.304C69.9893 11.304 72.4613 13.944 72.4613 17.808C72.4613 21.696 69.9893 24.408 65.8613 24.408ZM65.9093 21.528C67.6133 21.528 68.5733 20.232 68.5733 17.856C68.5733 15.48 67.6133 14.184 65.9093 14.184C64.1813 14.184 63.2213 15.48 63.2213 17.856C63.2213 20.232 64.1813 21.528 65.9093 21.528ZM79.609 24.408C75.721 24.408 73.273 21.696 73.273 17.856C73.273 14.04 75.721 11.304 79.513 11.304C83.065 11.304 85.225 13.416 85.537 16.296H81.673C81.553 15.288 81.121 14.184 79.585 14.184C78.001 14.184 77.209 15.552 77.209 17.856C77.209 20.16 77.977 21.528 79.585 21.528C81.097 21.528 81.553 20.496 81.673 19.368H85.537C85.345 22.296 83.137 24.408 79.609 24.408ZM99.2609 24H94.8209L91.9169 18.936L90.5729 20.352V24H86.7329V6.84H90.5729V16.272L94.6769 11.712H98.7569L94.4129 16.32L99.2609 24ZM103.434 10.248H99.5944V6.84H103.434V10.248ZM103.434 24H99.5944V11.712H103.434V24ZM111.404 9.504C110.732 9.504 110.228 9.624 110.228 10.944V11.712H112.364V14.592H110.228V24H106.388V14.592H104.732V11.712H106.388V10.848C106.388 7.848 107.54 6.624 110.18 6.624C110.9 6.624 111.548 6.696 112.364 6.864V9.576C111.908 9.528 111.716 9.504 111.404 9.504ZM116.239 28.248C115.399 28.248 114.751 28.176 113.935 28.008V25.08C114.343 25.128 114.655 25.152 115.087 25.152C115.831 25.152 116.911 25.128 117.247 23.832L112.351 11.712H116.311L119.191 19.8H119.239L121.879 11.712H125.671L121.183 24.024C120.151 26.832 118.951 28.248 116.239 28.248Z" fill="white"/>
</svg>
